<?xml version="1.0" encoding="UTF-8"?>
<svg version="1.1" xmlns="http://www.w3.org/2000/svg" width="96" height="96">
<path d="M0 0 C1.89308256 0.98613046 3.72143531 2.04075557 5.5546875 3.1328125 C8.08141796 4.27372732 8.08141796 4.27372732 10.5546875 4.1328125 C13.70217365 2.31227896 13.70217365 2.31227896 16.5546875 0.1328125 C22.30154448 -1.78280649 29.3343243 -2.08365699 35.046875 0.07421875 C40.14026195 3.13986108 43.57485361 6.68322777 45.8046875 12.2578125 C47.75237842 22.32088226 46.61789694 30.22674321 41.41015625 39.078125 C34.15617547 49.5536622 22.72182287 61.00276798 11.5546875 67.1328125 C7.49373186 67.8500862 5.94599659 67.37011628 2.3984375 65.21875 C1.26937406 64.33326282 0.15543865 63.42825734 -0.9453125 62.5078125 C-1.54408203 62.01925781 -2.14285156 61.53070313 -2.75976562 61.02734375 C-26.85240924 40.97945052 -26.85240924 40.97945052 -29.4453125 27.1328125 C-30.1280692 18.67713333 -29.34694301 11.68278104 -24.1328125 4.8203125 C-17.68059445 -1.63190555 -8.69058063 -3.0819631 0 0 Z M-19.4453125 10.1328125 C-22.50973331 15.34232788 -23.44341839 20.22169992 -22.4453125 26.1328125 C-18.28082625 38.72686269 -7.19723222 47.76305463 2.5546875 56.1328125 C3.55048828 57.04740234 3.55048828 57.04740234 4.56640625 57.98046875 C6.52174413 59.34609949 6.52174413 59.34609949 8.98046875 59.06640625 C21.10216137 54.67022334 32.95199787 40.40021415 38.5546875 29.1328125 C40.42074438 23.53464187 40.34296234 18.15859552 37.8671875 12.7578125 C35.90642548 9.35192138 34.37517229 7.46167678 30.5546875 6.1328125 C25.49947817 5.4638652 21.75470116 5.51058319 17.1796875 7.8828125 C14.54611877 10.03887557 14.54611877 10.03887557 12.4921875 12.4453125 C10.5546875 14.1328125 10.5546875 14.1328125 8.2421875 14.2578125 C4.93697218 12.87423399 2.72310773 10.92230876 0.10546875 8.5078125 C-3.2712961 5.51380437 -6.56624942 5.7968051 -10.90234375 5.859375 C-14.71777551 6.26963648 -16.68399147 7.50619005 -19.4453125 10.1328125 Z " fill="#DAA51F" transform="translate(39.4453125,15.8671875)"/>
</svg>
