<?xml version="1.0" encoding="UTF-8"?>
<svg version="1.1" xmlns="http://www.w3.org/2000/svg" width="96" height="96">
<path d="M0 0 C3.61647192 1.73289279 5.19429619 1.51302499 9 0.4375 C9.74507812 0.09847656 10.49015625 -0.24054687 11.2578125 -0.58984375 C17.90793591 -2.94864821 26.36928824 -2.61743263 32.9375 -0.0625 C39.32301969 3.30268077 43.70774511 8.82440526 46.39794922 15.46313477 C49.18829075 24.61378033 48.09294536 35.47154021 44.0625 44 C36.36443062 57.22961624 22.36170911 70.4796915 8 76.4375 C2.79646567 77.13743193 -0.37545824 75.48342686 -4.5625 72.625 C-5.16529785 72.22265137 -5.7680957 71.82030273 -6.38916016 71.40576172 C-17.00143883 64.16948825 -26.19864882 56.50014001 -33 45.4375 C-33.45246094 44.76976562 -33.90492187 44.10203125 -34.37109375 43.4140625 C-39.02270295 35.26972251 -38.19791908 23.4270954 -36.41015625 14.48828125 C-34.12478886 8.45364754 -29.27071961 3.99395644 -24 0.4375 C-16.92547036 -2.54328677 -7.0720921 -3.44902926 0 0 Z " fill="#FEFEFD" transform="translate(43,13.5625)"/>
<path d="M0 0 C3.61647192 1.73289279 5.19429619 1.51302499 9 0.4375 C9.74507812 0.09847656 10.49015625 -0.24054687 11.2578125 -0.58984375 C17.90793591 -2.94864821 26.36928824 -2.61743263 32.9375 -0.0625 C39.32301969 3.30268077 43.70774511 8.82440526 46.39794922 15.46313477 C49.18829075 24.61378033 48.09294536 35.47154021 44.0625 44 C36.36443062 57.22961624 22.36170911 70.4796915 8 76.4375 C2.79646567 77.13743193 -0.37545824 75.48342686 -4.5625 72.625 C-5.16529785 72.22265137 -5.7680957 71.82030273 -6.38916016 71.40576172 C-17.00143883 64.16948825 -26.19864882 56.50014001 -33 45.4375 C-33.45246094 44.76976562 -33.90492187 44.10203125 -34.37109375 43.4140625 C-39.02270295 35.26972251 -38.19791908 23.4270954 -36.41015625 14.48828125 C-34.12478886 8.45364754 -29.27071961 3.99395644 -24 0.4375 C-16.92547036 -2.54328677 -7.0720921 -3.44902926 0 0 Z M-28.9609375 10.7109375 C-32.87422245 16.53493436 -34.20103275 21.51575862 -33 28.4375 C-29.33763402 44.19471661 -16.65679842 54.86769848 -3.75 63.5625 C-3.17169434 63.9654126 -2.59338867 64.3683252 -1.99755859 64.78344727 C0.80848665 66.59734645 2.67426632 67.43917472 6.0390625 67.421875 C20.02481453 62.77225823 34.48051078 48.21569887 41 35.4375 C43.55907117 29.09545405 44.49498742 22.21893878 41.9375 15.75 C38.12927154 8.79584368 33.48545892 4.93265297 26 2.4375 C18.65220632 1.59431056 14.13928643 2.54735416 7.91796875 6.4453125 C6 7.4375 6 7.4375 3.4375 6.9375 C2.633125 6.4425 1.82875 5.9475 1 5.4375 C-10.10280386 0.16241219 -20.59817015 1.01545822 -28.9609375 10.7109375 Z " fill="#DAA622" transform="translate(43,13.5625)"/>
</svg>
