<svg width="100" height="84" viewBox="0 0 100 84" fill="none" xmlns="http://www.w3.org/2000/svg">
<rect width="100" height="84" fill="#001F3F"/>
<path d="M46.7983 39.4244C46.7983 78.3448 48.9266 78.3448 31.5191 78.3448C14.1116 78.3448 0 60.9195 0 39.4244C0 17.9292 14.1116 0.50386 31.5191 0.50386C48.9266 0.50386 46.7983 0.50386 46.7983 39.4244Z" fill="#DAA520"/>
<rect x="25.0174" y="18.8309" width="21.9004" height="11.7667" fill="#001F3F"/>
<path d="M54.9096 39.6489C54.9096 78.5694 52.859 78.5694 69.6312 78.5694C86.4034 78.5694 100 61.1441 100 39.6489C100 18.1537 86.4034 0.728394 69.6312 0.728394C52.859 0.728394 54.9096 0.728394 54.9096 39.6489Z" fill="#DAA520"/>
<rect width="21.1011" height="11.7667" transform="matrix(-1 0 0 1 75.8956 19.0555)" fill="#001F3F"/>
<path d="M37.4004 80.8136C37.4004 82.6696 35.3684 83.5976 31.3044 83.5976H16.4724C15.4484 83.5976 14.6164 83.3256 13.9764 82.7816C13.3684 82.2376 13.0644 81.5656 13.0644 80.7656C13.0644 79.9336 13.6244 78.8136 14.7444 77.4056L33.4644 52.1576C28.6644 52.6696 24.1684 52.9256 19.9764 52.9256C15.7844 52.9256 13.6884 52.0136 13.6884 50.1896C13.6884 49.5176 13.9604 48.9576 14.5044 48.5096C15.7524 48.9576 17.4324 49.1816 19.5444 49.1816H33.9444C35.0004 49.1816 35.8324 49.4536 36.4404 49.9976C37.0804 50.5416 37.4004 51.2296 37.4004 52.0616C37.4004 52.8936 36.8244 54.0136 35.6724 55.4216L17.0964 80.6216L31.6404 80.0456C33.8164 79.9496 35.4484 79.5496 36.5364 78.8456C37.1124 79.4216 37.4004 80.0776 37.4004 80.8136Z" fill="#001F3F"/>
<path d="M50.7613 61.7988C49.3213 60.1028 47.4973 59.2548 45.2893 59.2548C43.0813 59.2548 41.3693 60.0228 40.1533 61.5588C38.9373 63.0628 38.3293 65.2868 38.3293 68.2308C38.3293 72.0388 39.0653 74.8068 40.5373 76.5348C42.0413 78.2308 43.8973 79.0788 46.1053 79.0788C48.3133 79.0788 50.0093 78.3108 51.1933 76.7748C52.3773 75.2388 52.9693 72.9988 52.9693 70.0548C52.9693 66.2148 52.2333 63.4628 50.7613 61.7988ZM37.5613 59.8308C39.8013 57.6228 42.5053 56.5188 45.6733 56.5188C48.8413 56.5188 51.5293 57.6388 53.7373 59.8788C55.9773 62.0868 57.0973 65.1908 57.0973 69.1908C57.0973 73.1588 55.9773 76.2468 53.7373 78.4548C51.5293 80.6628 48.8413 81.7668 45.6733 81.7668C42.5053 81.7668 39.8013 80.6628 37.5613 78.4548C35.3533 76.2468 34.2493 73.1428 34.2493 69.1428C34.2493 65.1428 35.3533 62.0388 37.5613 59.8308Z" fill="#001F3F"/>
<path d="M71.2058 64.7748V78.3588C71.2058 79.2548 71.6218 79.8788 72.4538 80.2308C71.7818 81.2548 70.9338 81.7668 69.9098 81.7668C68.1498 81.7668 67.2698 80.6468 67.2698 78.4068V65.0628C67.2698 61.7028 65.7978 60.0228 62.8538 60.0228C61.2538 60.0228 59.7338 60.6628 58.2938 61.9428C56.8538 63.2228 55.8618 64.9348 55.3178 67.0788V78.3588C55.3178 79.2868 55.7178 79.9108 56.5178 80.2308C55.8458 81.2548 55.0138 81.7668 54.0218 81.7668C52.2298 81.7668 51.3338 80.6468 51.3338 78.4068V48.2628C51.3338 47.3348 50.9338 46.6948 50.1338 46.3428C50.6778 45.3508 51.5098 44.8548 52.6298 44.8548C54.4218 44.8548 55.3178 45.9588 55.3178 48.1668V62.3748C56.1498 60.6468 57.3338 59.2388 58.8698 58.1508C60.4058 57.0628 62.1978 56.5188 64.2458 56.5188C66.3258 56.5188 68.0058 57.2228 69.2858 58.6308C70.5658 60.0068 71.2058 62.0548 71.2058 64.7748Z" fill="#001F3F"/>
<path d="M81.5076 80.3816H91.2036C93.0276 80.3816 94.3876 79.7096 95.2836 78.3656C95.6996 78.5256 96.0356 78.8136 96.2916 79.2296C96.5476 79.6136 96.6756 80.0136 96.6756 80.4296C96.6756 82.5416 94.9156 83.5976 91.3956 83.5976H81.3156C78.8516 83.5976 77.0276 83.1016 75.8436 82.1096C74.6596 81.1176 74.0676 79.5016 74.0676 77.2616V52.8296C74.0676 51.8696 73.6676 51.2296 72.8676 50.9096C73.6356 49.7576 74.9156 49.1816 76.7076 49.1816H91.8756C95.0756 49.1816 96.6756 50.0136 96.6756 51.6776C96.6756 52.6696 96.2116 53.3256 95.2836 53.6456C94.3876 52.8456 93.0276 52.4456 91.2036 52.4456H78.0996V64.1576H88.2276C89.9876 64.1576 91.2356 64.3016 91.9716 64.5896C92.7076 64.8776 93.0756 65.4376 93.0756 66.2696C93.0756 67.1016 92.6916 67.7096 91.9236 68.0936C91.0596 67.6456 89.6996 67.4216 87.8436 67.4216H78.0996V77.1176C78.0996 78.2696 78.3556 79.1016 78.8676 79.6136C79.4116 80.1256 80.2916 80.3816 81.5076 80.3816Z" fill="#001F3F"/>
</svg>
