<?xml version="1.0" encoding="UTF-8"?>
<svg version="1.1" xmlns="http://www.w3.org/2000/svg" width="96" height="96">
<path d="M0 0 C0 5.28 0 10.56 0 16 C2.10375 15.9175 4.2075 15.835 6.375 15.75 C16.38025755 15.78025784 23.08029091 18.39795761 30.3203125 25.2890625 C36.58196391 31.66720975 40.18088695 38.72549087 40.390625 47.7890625 C40.3645082 49.7347644 40.31750648 51.68029414 40.25 53.625 C40.23195313 54.62917969 40.21390625 55.63335937 40.1953125 56.66796875 C40.14873997 59.11302652 40.08337028 61.55596812 40 64 C37.59716797 63.64550781 37.59716797 63.64550781 35 63 C33.4453125 60.671875 33.4453125 60.671875 32.125 57.75 C29.10261183 51.82058199 26.33839617 48.52568353 20.01171875 46.30078125 C13.48904141 44.61943298 6.69365085 44.4227569 0 44 C0 49.28 0 54.56 0 60 C-5.51552439 58.89689512 -7.63967286 56.97405414 -11.4296875 53.171875 C-12.02427765 52.5858551 -12.6188678 51.99983521 -13.23147583 51.39605713 C-14.48199076 50.15700462 -15.7273292 48.91270865 -16.96777344 47.66357422 C-18.87216311 45.75284634 -20.80169331 43.87033573 -22.734375 41.98828125 C-23.94693171 40.78026895 -25.15792503 39.57068493 -26.3671875 38.359375 C-26.94725555 37.79772644 -27.52732361 37.23607788 -28.12496948 36.65740967 C-31.93366906 32.7582479 -31.93366906 32.7582479 -32.21850586 29.50219727 C-30.47895611 25.9300383 -27.93231205 23.3615501 -25.13671875 20.60546875 C-24.54832718 20.01325027 -23.95993561 19.4210318 -23.35371399 18.81086731 C-22.11027111 17.56470798 -20.86178452 16.32356369 -19.60864258 15.0871582 C-17.69061319 13.19057838 -15.79488732 11.27357045 -13.90039062 9.35351562 C-12.6887808 8.14454837 -11.47593109 6.93682217 -10.26171875 5.73046875 C-9.69490891 5.15556198 -9.12809906 4.58065521 -8.54411316 3.98832703 C-4.45989503 0 -4.45989503 0 0 0 Z M-7.04125977 9.92773438 C-7.91580811 10.80751953 -8.79035645 11.68730469 -9.69140625 12.59375 C-10.15610825 13.05986694 -10.62081024 13.52598389 -11.09959412 14.00622559 C-12.58958182 15.50183009 -14.07606335 17.00086695 -15.5625 18.5 C-16.56943315 19.51194598 -17.57659166 20.52366777 -18.58398438 21.53515625 C-21.05861405 24.02083721 -23.53010969 26.50960874 -26 29 C-24.4879454 32.55289859 -22.40950829 34.83533556 -19.68359375 37.546875 C-18.83732422 38.39121094 -17.99105469 39.23554687 -17.11914062 40.10546875 C-16.23419922 40.97816406 -15.34925781 41.85085937 -14.4375 42.75 C-13.54869141 43.63816406 -12.65988281 44.52632812 -11.74414062 45.44140625 C-8.31631161 49.60111572 -8.31631161 49.60111572 -4 52 C-4 48.04 -4 44.08 -4 40 C0.0015458 40.06026424 3.99949888 40.14742305 8 40.25 C9.68802734 40.27126953 9.68802734 40.27126953 11.41015625 40.29296875 C21.58105017 40.59036331 27.53468248 43.28121423 35 50 C35.65391927 42.31644863 33.02554839 36.2890035 28.3125 30.25 C21.59668131 22.99556928 12.81271685 20.27027194 3.14453125 19.88671875 C0.76274282 19.87664066 -1.61916182 19.93197605 -4 20 C-4 16.04 -4 12.08 -4 8 C-5.34676927 7.88556657 -5.34676927 7.88556657 -7.04125977 9.92773438 Z M35 50 C36 52 36 52 36 52 Z " fill="#D9A51F" transform="translate(32,0)"/>
<path d="M0 0 C3.72875388 -0.14560195 7.45677434 -0.23417043 11.1875 -0.3125 C12.24259766 -0.35439453 13.29769531 -0.39628906 14.38476562 -0.43945312 C15.40634766 -0.45556641 16.42792969 -0.47167969 17.48046875 -0.48828125 C18.41785889 -0.51446533 19.35524902 -0.54064941 20.32104492 -0.56762695 C24.16170746 0.24614689 25.53557342 1.9917474 28 5 C28.63491821 8.22509766 28.63491821 8.22509766 28.64697266 11.9140625 C28.65573425 12.58951111 28.66449585 13.26495972 28.67352295 13.96087646 C28.69544369 16.18291382 28.68099347 18.40294416 28.6640625 20.625 C28.66743282 22.17529684 28.67228724 23.72559109 28.67855835 25.27587891 C28.68591963 28.5207644 28.67524926 31.76496045 28.65185547 35.00976562 C28.62336682 39.1630033 28.63977498 43.31462551 28.66971779 47.46780396 C28.68781168 50.66784777 28.68202345 53.86751043 28.66907883 57.06756592 C28.66575053 58.59853305 28.66981169 60.12953512 28.68147659 61.66046143 C28.69422147 63.8032149 28.67476493 65.94337649 28.64697266 68.0859375 C28.64100571 69.9119751 28.64100571 69.9119751 28.63491821 71.77490234 C27.79115282 76.0608493 26.55686051 77.48651629 23 80 C20.01351022 80.49475984 17.59858325 80.68574168 14.6171875 80.64697266 C13.78568176 80.65573425 12.95417603 80.66449585 12.09747314 80.67352295 C9.3561138 80.69548239 6.61637498 80.68097711 3.875 80.6640625 C1.96597993 80.66743164 0.05696195 80.67228508 -1.85205078 80.67855835 C-5.85014295 80.68592498 -9.84767602 80.67523094 -13.84570312 80.65185547 C-18.96738181 80.62336778 -24.08775047 80.63977288 -29.2093811 80.66971779 C-33.15057219 80.68779644 -37.09145332 80.68203014 -41.03265381 80.66907883 C-42.92087967 80.66574638 -44.8091338 80.66982622 -46.69732666 80.68147659 C-49.33803705 80.69419484 -51.9766343 80.67479623 -54.6171875 80.64697266 C-55.39551941 80.65709381 -56.17385132 80.66721497 -56.97576904 80.67764282 C-60.90904708 80.6009686 -62.81736548 80.13800982 -65.9884491 77.741745 C-68.04687302 74.93611205 -68.61769883 73.87998038 -68.56762695 70.48510742 C-68.5672493 69.62459274 -68.56687164 68.76407806 -68.56648254 67.87748718 C-68.54067612 66.9627211 -68.51486969 66.04795502 -68.48828125 65.10546875 C-68.48120651 64.15811356 -68.47413177 63.21075836 -68.46684265 62.23469543 C-68.43892334 59.21814979 -68.37618915 56.2034816 -68.3125 53.1875 C-68.28741396 51.13869874 -68.26460133 49.0898683 -68.24414062 47.04101562 C-68.18910459 42.02662379 -68.10284856 37.01362986 -68 32 C-66.68 32 -65.36 32 -64 32 C-63.98018066 33.13018555 -63.96036133 34.26037109 -63.93994141 35.42480469 C-63.8638112 39.62196964 -63.77510521 43.81879126 -63.68261719 48.015625 C-63.64435809 49.83131121 -63.60949983 51.64707241 -63.578125 53.46289062 C-63.5324077 56.07449123 -63.47442464 58.68557688 -63.4140625 61.296875 C-63.40251129 62.10743347 -63.39096008 62.91799194 -63.37905884 63.75311279 C-63.32669158 69.2227441 -63.32669158 69.2227441 -61 74 C-57.50975786 75.16341405 -54.37675293 75.14763577 -50.74633789 75.14526367 C-50.01105362 75.14862228 -49.27576935 75.1519809 -48.51820374 75.15544128 C-46.08633741 75.16494423 -43.65453999 75.16689401 -41.22265625 75.16796875 C-39.5325874 75.17118159 -37.84251883 75.17454568 -36.15245056 75.17805481 C-32.60919551 75.18404429 -29.06596484 75.18589487 -25.52270508 75.18530273 C-20.98193815 75.18520108 -16.44132746 75.19885785 -11.90059757 75.21607494 C-8.40989971 75.22719147 -4.91923968 75.22922206 -1.42852592 75.22869301 C0.24561667 75.22987347 1.91976024 75.23429897 3.59388542 75.24202538 C5.93501624 75.25181908 8.27580711 75.24894986 10.61694336 75.24291992 C11.30850525 75.24853943 12.00006714 75.25415894 12.71258545 75.25994873 C16.26986527 75.23665797 19.07317611 75.14306091 22 73 C23.05880919 69.82357244 23.13311616 67.55221881 23.14526367 64.21508789 C23.15164352 63.02698013 23.15802338 61.83887238 23.16459656 60.61476135 C23.16570938 59.33036667 23.1668222 58.04597198 23.16796875 56.72265625 C23.17129715 55.40462509 23.17462555 54.08659393 23.17805481 52.72862244 C23.18404089 49.93862082 23.18589523 47.14865016 23.18530273 44.35864258 C23.1852011 40.7864047 23.19885707 37.21436551 23.21607494 33.64217472 C23.22987702 30.23149881 23.22928386 26.82085974 23.23046875 23.41015625 C23.24124702 21.48660057 23.24124702 21.48660057 23.25224304 19.52418518 C23.2476281 17.7372953 23.2476281 17.7372953 23.24291992 15.91430664 C23.24434494 14.86634415 23.24576996 13.81838165 23.24723816 12.73866272 C22.99444611 9.93847939 22.59571024 8.30424555 21 6 C18.34081834 5.11360611 16.51935359 4.82010975 13.76953125 4.68359375 C12.56586914 4.62075195 12.56586914 4.62075195 11.33789062 4.55664062 C10.50451172 4.51732422 9.67113281 4.47800781 8.8125 4.4375 C7.96751953 4.39431641 7.12253906 4.35113281 6.25195312 4.30664062 C4.16815567 4.20068482 2.08409897 4.0998498 0 4 C0 2.68 0 1.36 0 0 Z " fill="#D9A41F" transform="translate(68,16)"/>
</svg>
