<?xml version="1.0" encoding="UTF-8"?>
<svg version="1.1" xmlns="http://www.w3.org/2000/svg" width="96" height="96">
<path d="M0 0 C6.66251791 0 6.66251791 0 10.234375 3.453125 C10.71390625 3.94296875 11.1934375 4.4328125 11.6875 4.9375 C12.74106485 5.95953673 13.79710266 6.97902975 14.85546875 7.99609375 C15.38188965 8.50640137 15.90831055 9.01670898 16.45068359 9.54248047 C18.69927841 11.65784622 21.08708914 13.57595675 23.5 15.5 C28.1944098 19.27326835 32.63766604 23.25429039 37.02929688 27.37109375 C39.27983796 29.47200591 41.42885331 31.28590221 44 33 C44.55078125 35.79296875 44.55078125 35.79296875 44 39 C42.0837061 41.08690194 40.40842473 42.62194536 38.1875 44.3125 C37.59509521 44.7876001 37.00269043 45.2627002 36.39233398 45.75219727 C35.17925034 46.7234119 33.96022589 47.68725312 32.73535156 48.64355469 C30.31308116 50.53693319 27.93875954 52.48683918 25.5625 54.4375 C24.68335937 55.14648438 23.80421875 55.85546875 22.8984375 56.5859375 C20.68776668 58.42717007 18.54489016 60.2965222 16.4140625 62.2265625 C15.79587646 62.77900635 15.17769043 63.3314502 14.54077148 63.90063477 C13.33126504 64.98522314 12.13224103 66.08164963 10.94555664 67.19116211 C6.78889952 70.8946068 5.9912972 71 0 71 C0 65.06 0 59.12 0 53 C-17.1717738 55.58222162 -32.42276419 58.25990921 -43.94140625 72.51953125 C-45.08111102 74.0318425 -45.08111102 74.0318425 -46 76 C-47.98 76 -49.96 76 -52 76 C-52.77321192 60.4713273 -49.72888398 47.30435393 -39.9375 34.875 C-31.78764974 26.07666703 -20.58262091 21.9485914 -9 20 C-6.03 20 -3.06 20 0 20 C0 13.4 0 6.8 0 0 Z M6 11 C6 15.95 6 20.9 6 26 C3.793125 26.0825 1.58625 26.165 -0.6875 26.25 C-13.38048739 26.99623836 -25.67689557 30.6616391 -34.875 39.87890625 C-38.66206823 44.56540318 -41.55421485 50.13709192 -43 56 C-42.67443869 58.22647012 -42.67443869 58.22647012 -42 60 C-41.00033203 59.31164062 -41.00033203 59.31164062 -39.98046875 58.609375 C-33.54449206 54.32472479 -27.40847804 51.2091546 -20 49 C-19.3090625 48.78601562 -18.618125 48.57203125 -17.90625 48.3515625 C-10.16370648 46.29681057 -1.96188466 46.34736121 6 46 C6 50.62 6 55.24 6 60 C9.28577706 58.02853376 11.70279387 56.55393306 14.453125 54.109375 C15.06857178 53.56756592 15.68401855 53.02575684 16.31811523 52.4675293 C16.95563721 51.90074463 17.59315918 51.33395996 18.25 50.75 C23.69113934 45.96762646 29.18801959 41.33142171 35 37 C33.49066744 33.2097098 31.31798482 31.41322011 28.125 28.9375 C23.21632412 25.04418923 18.59460666 20.9540944 14.06103516 16.63061523 C11.41041746 14.14040825 9.31505685 12.65752842 6 11 Z " fill="#DAA51F" transform="translate(52,8)"/>
</svg>
