<?xml version="1.0" encoding="UTF-8"?>
<svg version="1.1" xmlns="http://www.w3.org/2000/svg" width="96" height="96">
<path d="M0 0 C4.32143614 0.97329643 6.38541604 3.26108244 9.34765625 6.43359375 C9.88455078 6.97242188 10.42144531 7.51125 10.97460938 8.06640625 C13.62912384 10.8113014 15.5304795 12.85447448 16.03515625 16.68359375 C14.59765625 18.43359375 14.59765625 18.43359375 13.03515625 19.68359375 C8.72643339 18.2473528 7.4891306 17.1375681 4.03515625 13.68359375 C3.70515625 26.88359375 3.37515625 40.08359375 3.03515625 53.68359375 C-0.96484375 54.68359375 -0.96484375 54.68359375 -2.68286133 53.77026367 C-4.69927645 50.48816502 -4.44642881 47.04050499 -4.4765625 43.296875 C-4.4945137 42.47986618 -4.5124649 41.66285736 -4.53096008 40.8210907 C-4.58512163 38.21281081 -4.61897683 35.6047145 -4.65234375 32.99609375 C-4.68551174 31.22718796 -4.72000092 29.45830642 -4.75585938 27.68945312 C-4.84085121 23.35429902 -4.9076341 19.01919991 -4.96484375 14.68359375 C-5.58230469 15.32425781 -6.19976562 15.96492188 -6.8359375 16.625 C-8.99809732 18.71574904 -9.97418695 19.58712095 -12.96484375 19.68359375 C-14.71484375 18.24609375 -14.71484375 18.24609375 -15.96484375 16.68359375 C-14.53687877 12.14233303 -12.01272927 9.18224154 -8.71484375 5.87109375 C-8.24949219 5.36900391 -7.78414062 4.86691406 -7.3046875 4.34960938 C-4.96705715 1.98300013 -3.25776685 0.75113201 0 0 Z " fill="#DAA51F" transform="translate(47.96484375,8.31640625)"/>
<path d="M0 0 C1.09570312 0.00902344 2.19140625 0.01804688 3.3203125 0.02734375 C4.16335937 0.03894531 5.00640625 0.05054688 5.875 0.0625 C7 3.8125 7 3.8125 5.875 6.0625 C3.58984375 6.6953125 3.58984375 6.6953125 0.8125 7.1875 C-0.10660156 7.35507812 -1.02570312 7.52265625 -1.97265625 7.6953125 C-3.03806641 7.87707031 -3.03806641 7.87707031 -4.125 8.0625 C-5.31269234 11.62557702 -5.25456485 14.49015324 -5.2578125 18.25 C-5.25924759 19.29837036 -5.25924759 19.29837036 -5.26071167 20.36791992 C-5.26139141 21.84391368 -5.25955145 23.31991045 -5.25537109 24.79589844 C-5.25001989 27.05410481 -5.25532298 29.3121123 -5.26171875 31.5703125 C-5.26105793 33.00520877 -5.25977669 34.44010492 -5.2578125 35.875 C-5.25668457 37.18082031 -5.25555664 38.48664063 -5.25439453 39.83203125 C-5.27430356 43.07793247 -5.27430356 43.07793247 -4.125 46.0625 C-1.39998092 46.97083969 0.49733971 47.24609985 3.32421875 47.37890625 C4.17177734 47.42080078 5.01933594 47.46269531 5.89257812 47.50585938 C7.21418945 47.56483398 7.21418945 47.56483398 8.5625 47.625 C9.45517578 47.66818359 10.34785156 47.71136719 11.26757812 47.75585938 C13.46990108 47.86185353 15.67233473 47.96392051 17.875 48.0625 C19 51.8125 19 51.8125 17.875 54.0625 C13.97941912 54.17893304 10.08428742 54.24982909 6.1875 54.3125 C5.08470703 54.34601563 3.98191406 54.37953125 2.84570312 54.4140625 C-5.36043471 54.51323033 -5.36043471 54.51323033 -9.33203125 52.171875 C-11.77379484 49.29921196 -12.25212635 47.74065615 -12.30200195 44.05932617 C-12.32125481 42.82245308 -12.32125481 42.82245308 -12.34089661 41.56059265 C-12.34828354 40.66790176 -12.35567047 39.77521088 -12.36328125 38.85546875 C-12.371353 37.93792313 -12.37942474 37.0203775 -12.38774109 36.07502747 C-12.40158493 34.13068534 -12.41230574 32.18631888 -12.42016602 30.24194336 C-12.43737165 27.27215348 -12.48125382 24.30347887 -12.52539062 21.33398438 C-12.53551818 19.44532069 -12.54403409 17.55664754 -12.55078125 15.66796875 C-12.56828934 14.78135056 -12.58579742 13.89473236 -12.60383606 12.98124695 C-12.58920279 8.80950446 -12.48417768 6.63628968 -10.22338867 3.0246582 C-6.76747464 -0.20689282 -4.64554473 -0.04942069 0 0 Z " fill="#DAA41F" transform="translate(32.125,33.9375)"/>
<path d="M0 0 C10.93286835 -0.6277245 10.93286835 -0.6277245 15.1875 1.875 C17.64429384 4.75537898 18.12693431 6.30766963 18.17700195 10.00317383 C18.18983719 10.82775589 18.20267242 11.65233795 18.21589661 12.50190735 C18.22328354 13.39459824 18.23067047 14.28728912 18.23828125 15.20703125 C18.25038887 16.58334969 18.25038887 16.58334969 18.26274109 17.98747253 C18.27658493 19.93181466 18.28730574 21.87618112 18.29516602 23.82055664 C18.31237165 26.79034652 18.35625382 29.75902113 18.40039062 32.72851562 C18.41051818 34.61717931 18.41903409 36.50585246 18.42578125 38.39453125 C18.44328934 39.28114944 18.46079742 40.16776764 18.47883606 41.08125305 C18.46420279 45.25299554 18.35917768 47.42621032 16.09838867 51.0378418 C12.64247464 54.26939282 10.52054473 54.11192069 5.875 54.0625 C4.77929688 54.05347656 3.68359375 54.04445312 2.5546875 54.03515625 C1.71164063 54.02355469 0.86859375 54.01195312 0 54 C-1.125 50.25 -1.125 50.25 0 48 C2.28515625 47.3671875 2.28515625 47.3671875 5.0625 46.875 C6.44115234 46.62363281 6.44115234 46.62363281 7.84765625 46.3671875 C8.55792969 46.24601562 9.26820312 46.12484375 10 46 C11.18769234 42.43692298 11.12956485 39.57234676 11.1328125 35.8125 C11.13376923 35.11358643 11.13472595 34.41467285 11.13571167 33.69458008 C11.13639141 32.21858632 11.13455145 30.74258955 11.13037109 29.26660156 C11.12501989 27.00839519 11.13032298 24.7503877 11.13671875 22.4921875 C11.13605793 21.05729123 11.13477669 19.62239508 11.1328125 18.1875 C11.13168457 16.88167969 11.13055664 15.57585938 11.12939453 14.23046875 C11.14930356 10.98456753 11.14930356 10.98456753 10 8 C6.7 7.34 3.4 6.68 0 6 C-1 2 -1 2 0 0 Z " fill="#D9A41F" transform="translate(58,34)"/>
</svg>
